<svg width="28" height="28" viewBox="0 0 28 28" fill="none" xmlns="http://www.w3.org/2000/svg">
<path d="M15.5167 20.1542C15.2834 19.9208 15.1714 19.6389 15.1807 19.3083C15.19 18.9778 15.3117 18.6958 15.5459 18.4625L18.8417 15.1667H5.83336C5.5028 15.1667 5.22552 15.0547 5.00152 14.8307C4.77752 14.6067 4.66591 14.3298 4.66669 14C4.66669 13.6694 4.77869 13.3922 5.00269 13.1682C5.22669 12.9442 5.50358 12.8326 5.83336 12.8333H18.8417L15.5167 9.50833C15.2834 9.275 15.1667 8.99772 15.1667 8.6765C15.1667 8.35528 15.2834 8.07839 15.5167 7.84583C15.75 7.6125 16.0273 7.49583 16.3485 7.49583C16.6697 7.49583 16.9466 7.6125 17.1792 7.84583L22.5167 13.1833C22.6334 13.3 22.7162 13.4264 22.7652 13.5625C22.8142 13.6986 22.8383 13.8444 22.8375 14C22.8375 14.1556 22.813 14.3014 22.764 14.4375C22.715 14.5736 22.6326 14.7 22.5167 14.8167L17.15 20.1833C16.9361 20.3972 16.669 20.5042 16.3485 20.5042C16.0281 20.5042 15.7508 20.3875 15.5167 20.1542Z" fill="white"/>
</svg>
