<svg width="25" height="24" viewBox="0 0 25 24" fill="none" xmlns="http://www.w3.org/2000/svg">
<g clip-path="url(#clip0_1_18)">
<path d="M24.4886 12.2245C24.4886 11.2413 24.4069 10.5237 24.2302 9.77963H12.7391V14.2176H19.4841C19.3482 15.3205 18.6138 16.9815 16.9819 18.0976L16.959 18.2461L20.5923 20.9963L20.844 21.0209C23.1558 18.9347 24.4886 15.8653 24.4886 12.2245Z" fill="#4285F4"/>
<path d="M12.7391 23.9176C16.0436 23.9176 18.8177 22.8545 20.844 21.0209L16.9819 18.0976C15.9484 18.8018 14.5613 19.2934 12.7391 19.2934C9.50254 19.2934 6.75557 17.2074 5.77636 14.324L5.63282 14.3359L1.85489 17.1927L1.80548 17.3269C3.81811 21.2334 7.9522 23.9176 12.7391 23.9176Z" fill="#34A853"/>
<path d="M5.77634 14.324C5.51797 13.5799 5.36844 12.7826 5.36844 11.9588C5.36844 11.1349 5.51797 10.3377 5.76275 9.5936L5.75591 9.43513L1.93062 6.53241L1.80547 6.59058C0.975969 8.21168 0.5 10.0321 0.5 11.9588C0.5 13.8855 0.975969 15.7058 1.80547 17.3269L5.77634 14.324Z" fill="#FBBC05"/>
<path d="M12.7391 4.62403C15.0373 4.62403 16.5875 5.59402 17.4715 6.40461L20.9256 3.10928C18.8042 1.1826 16.0436 0 12.7391 0C7.9522 0 3.81811 2.68406 1.80548 6.59056L5.76276 9.59359C6.75558 6.7102 9.50254 4.62403 12.7391 4.62403Z" fill="#EB4335"/>
</g>
<defs>
<clipPath id="clip0_1_18">
<rect width="24" height="24" fill="white" transform="translate(0.5)"/>
</clipPath>
</defs>
</svg>
