<svg width="540" height="540" viewBox="0 0 540 540" fill="none" xmlns="http://www.w3.org/2000/svg">
<path d="M124.2 229.057C124.2 229.057 95.1318 143.045 196.522 153.543C297.913 164.041 249.469 125.971 287.782 102.346C326.095 78.7207 438.982 152.22 391.754 223.111C344.525 294.002 467.23 229.154 492.826 335.761C508.621 401.549 469.433 449.971 437.103 477.419" stroke="#CCDDE2" stroke-width="5.47" stroke-miterlimit="10"/>
<path d="M446.99 395.227C439.371 351.104 412.393 311.619 368.561 297.487C357.348 293.892 345.882 291.139 334.26 289.252V289.312C333.654 292.974 332.219 296.451 330.064 299.474C325.496 305.733 319.199 310.874 311.909 313.552C304.468 316.306 295.25 316.663 288.344 312.332C284.186 309.729 280.152 305.144 279.423 300.198C278.591 294.625 281.432 289.349 285.428 285.667C251.559 285.942 219.699 291.515 194.168 297.86C195.053 301.565 196.278 305.18 197.829 308.66C199.999 313.511 203.066 317.908 206.869 321.62C211.611 316.921 215.764 311.663 219.235 305.96C222.555 307.046 225.482 309.085 227.653 311.822C229.823 314.56 231.142 317.874 231.444 321.355V321.533C232.783 334.175 220.612 343.673 210.384 349.516C198.569 356.309 185.398 361.396 172.46 365.624C167.125 367.374 160.191 368.864 154.559 367.039C153.952 366.846 153.361 366.609 152.788 366.332C147.172 363.578 143.413 357.805 140.481 352.529C132.127 337.544 126.695 321.209 123.012 304.442C97.4538 307.709 94.527 290.402 93.0096 286.158L71.145 347.28C69.998 351.674 69.8744 356.272 70.7821 360.721C71.6904 365.17 73.6069 369.352 76.3841 372.945C79.1608 376.537 82.7248 379.445 86.8012 381.445C90.8782 383.445 95.3591 384.484 99.9 384.481H190.415L231.53 489.943L243.184 519.875H309.744C304.344 519.875 301.39 518.558 299.246 516.409C297.032 514.193 295.786 511.192 295.78 508.06C295.78 501.58 301.099 496.267 309.744 496.267H310.354C309.701 496.267 309.074 496.207 308.421 496.148C308.826 496.104 309.228 496.037 309.625 495.948C309.197 495.938 308.77 495.905 308.345 495.851C312.245 495.39 315.858 493.574 318.554 490.719C321.25 487.865 322.856 484.153 323.093 480.234C323.104 480.03 323.104 479.827 323.093 479.624V479.311C323 475.292 321.464 471.442 318.766 468.462C316.068 465.483 312.388 463.574 308.399 463.084C308.853 463.046 309.285 463.008 309.722 463.008C309.328 462.911 308.891 462.851 308.48 462.792C309.128 462.732 309.782 462.689 310.408 462.689L359.105 462.949L368.064 462.986H378.697C379.188 462.986 379.685 462.986 380.155 463.046L395.95 463.127L406.501 463.186C410.911 463.223 415.127 465.005 418.226 468.142C421.326 471.279 423.057 475.516 423.041 479.926C423.036 482.42 422.458 484.878 421.351 487.114C425.879 486.534 430.077 484.441 433.264 481.174C440.861 473.414 444.134 461.798 446.396 451.474C450.398 433.081 450.16 413.7 446.99 395.227ZM323.957 396.469C314.782 410.59 299.16 409.321 299.16 409.321C299.16 409.321 297.864 410.585 294.84 405.206C291.816 399.828 283.203 396.15 283.203 396.15C282.517 401.55 281.097 409.758 267.003 399.12C252.909 388.482 257.159 372.974 258.363 364.782C259.567 356.59 264.368 353.874 264.368 353.874L270.038 350.882C270.038 350.882 253.638 346.665 252.85 346.508C252.061 346.352 237.454 334.121 252.277 330.892C267.1 327.662 290.207 340.504 294.673 343.042C299.138 345.58 325.237 367.655 325.237 367.655C325.237 367.655 333.18 382.37 323.957 396.469Z" fill="#353642"/>
<path d="M122.99 304.452C122.99 304.452 135.351 302.951 139.979 294.127L135.945 316.759C135.945 316.759 185.117 300.019 194.135 297.859C194.135 297.859 197.041 316.591 208.607 321.619L220.541 306.445C220.541 306.445 235.505 310.225 231.412 330.615C227.318 351.005 170.705 368.048 161.104 367.654C151.502 367.259 141.167 361.352 130.583 329.605L122.99 304.452Z" fill="#353642"/>
<path d="M143.127 254.038C146.259 259.136 149.407 264.223 152.658 269.245C154.661 272.339 158.312 276.751 154.429 279.985C153.166 280.954 151.64 281.519 150.05 281.605C147.555 281.827 144.936 281.227 143.419 279.083L135.859 266.555C134.352 264.057 131.959 262.218 129.158 261.403C126.356 260.588 123.35 260.859 120.739 262.16" stroke="black" stroke-width="5.47" stroke-miterlimit="10"/>
<path d="M171.72 270.539C173.696 275.237 172.357 278.266 170.046 279.789C166.266 282.268 161.206 281.08 158.528 277.462L143.154 254.064" stroke="black" stroke-width="5.47" stroke-miterlimit="10"/>
<path d="M156.141 247.234C161.735 254.038 168.793 266.674 172.697 271.95C176.602 277.226 182.639 274.045 182.639 274.045C187.542 271.405 186.71 267.025 184.567 261.706C179.285 248.649 171.747 239.966 163.339 234.274C137.284 216.649 110.554 229.652 102.6 260.075L71.145 347.28C69.998 351.674 69.8744 356.272 70.7821 360.721C71.6904 365.17 73.6069 369.352 76.3841 372.944C79.1608 376.537 82.7248 379.445 86.8012 381.445C90.8782 383.445 95.3591 384.483 99.9 384.48H190.415L243.2 519.88" stroke="black" stroke-width="5.47" stroke-miterlimit="10"/>
<path d="M188.46 255.717C194.94 253.471 194.643 243.135 185.447 239.647C175.289 235.791 157.253 230.337 152.723 228.976C152.695 228.955 152.661 228.942 152.626 228.938C152.307 228.841 152.086 228.76 151.913 228.722L151.659 228.641" stroke="black" stroke-width="5.47" stroke-miterlimit="10"/>
<path d="M284.202 359.056C278.532 352.241 263.012 348.38 252.882 346.512C251.179 346.192 249.627 345.328 248.458 344.049C247.289 342.77 246.568 341.147 246.402 339.422C246.284 338.259 246.419 337.084 246.796 335.977C247.4 334.277 248.557 332.83 250.082 331.867C251.606 330.903 253.41 330.479 255.204 330.663C272.484 332.413 290.304 337.85 303.485 349.563C303.485 349.563 367.384 398.325 375.014 403.072C378.162 404.983 381.1 402.726 378.967 399.724L378.297 398.579C374.541 392.133 370.096 386.115 365.04 380.629" stroke="black" stroke-width="5.47" stroke-miterlimit="10"/>
<path d="M285.385 285.66C205.022 286.33 135.945 316.753 135.945 316.753L142.841 278.1" stroke="black" stroke-width="5.47" stroke-miterlimit="10"/>
<path d="M410.2 496.027C410.2 496.027 401.447 494.045 399.119 501.055C396.792 508.064 394.362 519.215 411.097 519.874C427.831 520.532 418.003 517.244 417.037 511.828C416.07 506.411 410.2 496.027 410.2 496.027Z" fill="#353642"/>
<path d="M276.48 367.951C276.48 367.951 267.035 360.791 258.53 368.048C258.172 368.364 257.86 368.727 257.602 369.128" stroke="black" stroke-width="5.47" stroke-miterlimit="10"/>
<g opacity="0.77">
<path opacity="0.77" d="M158.495 277.436C161.195 281.06 166.25 282.242 170.014 279.758C172.298 278.246 173.637 275.233 171.709 270.578C172.06 271.091 172.379 271.545 172.692 271.961C176.591 277.258 182.633 274.067 182.633 274.067C187.537 271.426 186.71 267.047 184.567 261.722C182.469 256.449 179.716 251.46 176.375 246.872C178.562 244.826 181.159 242.758 183.897 243.665C186.851 244.648 187.677 248.352 188.012 251.441C188.168 252.877 188.325 254.297 188.482 255.734L190.847 276.88C191.635 283.9 192.424 291.023 194.135 297.875C195.02 301.58 196.246 305.196 197.797 308.675C199.967 313.526 203.034 317.923 206.836 321.635C211.579 316.937 215.732 311.678 219.202 305.975C222.522 307.062 225.45 309.101 227.621 311.838C229.791 314.575 231.11 317.89 231.412 321.371V321.549C232.751 334.19 220.579 343.689 210.352 349.532C198.536 356.325 185.366 361.412 172.427 365.64C167.092 367.39 160.159 368.88 154.526 367.055C153.92 366.861 153.328 366.625 152.755 366.347C147.139 363.593 143.381 357.821 140.449 352.545C126.409 327.3 120.577 298.313 117.504 269.606C123.649 268.759 129.773 267.814 135.821 266.512C135.821 266.512 135.821 266.555 135.859 266.572L142.83 278.133L143.402 279.094C144.914 281.254 147.533 281.832 150.034 281.616C151.623 281.537 153.15 280.972 154.408 279.996C158.285 276.756 154.645 272.36 152.636 269.266" fill="white"/>
<path opacity="0.77" d="M158.495 277.436C161.195 281.06 166.25 282.242 170.014 279.758C172.298 278.246 173.637 275.233 171.709 270.578C172.06 271.091 172.379 271.545 172.692 271.961C176.591 277.258 182.633 274.067 182.633 274.067C187.537 271.426 186.71 267.047 184.567 261.722C182.469 256.449 179.716 251.46 176.375 246.872C178.562 244.826 181.159 242.758 183.897 243.665C186.851 244.648 187.677 248.352 188.012 251.441C188.168 252.877 188.325 254.297 188.482 255.734L190.847 276.88C191.635 283.9 192.424 291.023 194.135 297.875C195.02 301.58 196.246 305.196 197.797 308.675C199.967 313.526 203.034 317.923 206.836 321.635C211.579 316.937 215.732 311.678 219.202 305.975C222.522 307.062 225.45 309.101 227.621 311.838C229.791 314.575 231.11 317.89 231.412 321.371V321.549C232.751 334.19 220.579 343.689 210.352 349.532C198.536 356.325 185.366 361.412 172.427 365.64C167.092 367.39 160.159 368.88 154.526 367.055C153.92 366.861 153.328 366.625 152.755 366.347C147.139 363.593 143.381 357.821 140.449 352.545C126.409 327.3 120.577 298.313 117.504 269.606C123.649 268.759 129.773 267.814 135.821 266.512C135.821 266.512 135.821 266.555 135.859 266.572L142.83 278.133L143.402 279.094C144.914 281.254 147.533 281.832 150.034 281.616C151.623 281.537 153.15 280.972 154.408 279.996C158.285 276.756 154.645 272.36 152.636 269.266" fill="#F34848"/>
<path opacity="0.77" d="M160.153 279.148C162.545 282.388 166.633 281.978 170.014 279.758C172.055 278.408 173.729 278.803 172.006 274.639C172.325 275.093 172.368 273.559 172.649 273.899C176.132 278.63 172.692 271.945 172.692 271.945C177.552 278.084 188.131 272.301 186.192 267.554C184.14 262.441 181.98 254.881 179.242 251.101C181.402 249.059 180.986 249.362 183.735 250.987C184.473 251.461 185.091 252.101 185.54 252.856C185.989 253.61 186.257 254.458 186.322 255.334C186.543 257.392 186.764 259.363 186.986 261.371L189.092 280.271C189.799 286.552 190.501 292.897 192.029 299.009C192.819 302.315 193.915 305.54 195.302 308.643C197.235 312.914 203.445 320.026 206.836 323.282C211.054 319.097 216.108 311.402 219.202 306.289C225.142 308.114 224.883 313.795 225.304 319.999V320.161C226.503 331.442 215.638 339.914 206.534 345.136C195.982 351.2 184.226 355.736 172.676 359.516C167.913 361.082 161.725 362.432 156.697 360.78C156.155 360.609 155.626 360.397 155.115 360.148C150.104 357.686 146.745 352.54 144.126 347.825C132.662 327.235 127.343 303.859 124.416 280.423C124.201 278.669 124.676 276.901 125.74 275.49C126.803 274.08 128.373 273.137 130.118 272.863C133.407 272.323 136.685 271.783 139.941 271.059L140.033 271.102L146.254 281.422C147.609 283.339 147.83 281.837 150.061 281.643C151.47 281.519 154.202 281.243 155.293 280.331C158.755 277.447 156.8 276.254 155.007 273.494" fill="#F34848"/>
</g>
<path d="M275.341 378.374C275.341 378.374 257.407 372.477 257.137 382.391" stroke="black" stroke-width="5.47" stroke-miterlimit="10"/>
<path opacity="0.54" d="M114.815 479.368L79.6446 389.263C79.2088 387.52 79.1764 385.7 79.549 383.942C79.9222 382.184 80.6911 380.534 81.797 379.117C82.9035 377.701 84.3178 376.555 85.9334 375.767C87.5486 374.979 89.3225 374.57 91.1196 374.57H230.818C233.954 374.569 237 375.625 239.464 377.567C241.928 379.508 243.666 382.223 244.399 385.273L282.901 475.355C283.317 477.093 283.334 478.903 282.95 480.648C282.566 482.393 281.793 484.029 280.686 485.432C279.58 486.835 278.17 487.969 276.562 488.75C274.954 489.529 273.191 489.935 271.404 489.936H128.363C125.25 489.938 122.225 488.898 119.77 486.983C117.316 485.068 115.571 482.388 114.815 479.368Z" fill="white"/>
<path d="M281.178 393.572C281.178 393.572 284.089 396.24 282.982 400.052C282.161 402.877 279.353 404.659 276.572 403.692C267.716 400.63 259.74 395.43 257.796 386.59C256.877 382.115 256.679 377.521 257.207 372.982C257.634 368.776 258.255 364.234 259.67 360.233C261.83 354.088 268.445 349.805 274.865 352.765" stroke="black" stroke-width="5.47" stroke-miterlimit="10"/>
<path d="M114.815 479.368L79.6446 389.263C79.2088 387.52 79.1764 385.7 79.549 383.942C79.9222 382.184 80.6911 380.534 81.797 379.117C82.9035 377.701 84.3178 376.555 85.9334 375.767C87.5486 374.979 89.3225 374.57 91.1196 374.57H230.818C233.954 374.569 237 375.625 239.464 377.567C241.928 379.508 243.666 382.223 244.399 385.273L282.901 475.355C283.317 477.093 283.334 478.903 282.95 480.648C282.566 482.393 281.793 484.029 280.686 485.432C279.58 486.835 278.17 487.969 276.562 488.75C274.954 489.529 273.191 489.935 271.404 489.936H128.363C125.25 489.938 122.225 488.898 119.77 486.983C117.316 485.068 115.571 482.388 114.815 479.368Z" fill="#F34848"/>
<path d="M114.815 479.368L79.6446 389.263C79.2088 387.52 79.1764 385.7 79.549 383.942C79.9222 382.184 80.6911 380.534 81.797 379.117C82.9035 377.701 84.3178 376.555 85.9334 375.767C87.5486 374.979 89.3225 374.57 91.1196 374.57H230.818C233.954 374.569 237 375.625 239.464 377.567C241.928 379.508 243.666 382.223 244.399 385.273L282.901 475.355C283.317 477.093 283.334 478.903 282.95 480.648C282.566 482.393 281.793 484.029 280.686 485.432C279.58 486.835 278.17 487.969 276.562 488.75C274.954 489.529 273.191 489.935 271.404 489.935H128.363C125.25 489.938 122.225 488.898 119.77 486.983C117.316 485.068 115.571 482.388 114.815 479.368Z" stroke="black" stroke-width="5.47" stroke-linecap="square" stroke-linejoin="round"/>
<path d="M119.961 475.739L87.5124 392.579C87.1112 390.97 87.082 389.291 87.4265 387.67C87.7711 386.048 88.4806 384.526 89.5018 383.22C90.5224 381.913 91.8275 380.857 93.3174 380.13C94.8078 379.403 96.444 379.025 98.1018 379.025H226.978C229.872 379.024 232.681 379.997 234.954 381.788C237.227 383.579 238.831 386.083 239.506 388.896L275.033 472.008C275.416 473.611 275.431 475.281 275.077 476.891C274.723 478.502 274.008 480.01 272.987 481.305C271.966 482.599 270.665 483.646 269.181 484.365C267.698 485.085 266.07 485.459 264.422 485.459H132.457C129.589 485.462 126.802 484.506 124.539 482.746C122.275 480.985 120.665 478.519 119.961 475.739Z" fill="#F34848"/>
<path d="M395.777 462.694L420.487 519.874" stroke="black" stroke-width="5.47" stroke-miterlimit="10"/>
<path d="M513 519.874H27" stroke="black" stroke-width="5.47" stroke-miterlimit="10"/>
<path d="M283.16 261.797C279.153 265.755 273.17 265.75 269.762 262.088" stroke="black" stroke-width="5.47" stroke-miterlimit="10"/>
<path d="M176.375 246.855C178.562 244.808 181.159 242.74 183.897 243.647C186.851 244.63 187.677 248.335 188.012 251.423C188.958 259.912 189.903 268.392 190.847 276.863C192.046 287.663 193.309 298.722 197.797 308.647C199.967 313.498 203.034 317.895 206.836 321.607" stroke="black" stroke-width="5.47" stroke-miterlimit="10"/>
<path d="M231.412 321.542V321.364C231.11 317.884 229.791 314.569 227.621 311.832C225.45 309.095 222.522 307.056 219.202 305.969C215.732 311.672 211.579 316.931 206.836 321.629C194.402 333.993 178.428 342.182 161.131 345.059C161.962 348.37 163.674 351.383 164.857 354.569C166.039 357.755 166.628 361.443 165.191 364.516C163.377 368.436 158.171 367.923 154.553 367.054C154.516 367.054 154.494 367.054 154.456 367.054" stroke="black" stroke-width="5.47" stroke-miterlimit="10"/>
<path d="M135.832 266.507C129.784 267.808 123.66 268.753 117.515 269.601C120.587 298.307 126.398 327.295 140.459 352.54C143.392 357.815 147.15 363.588 152.766 366.342C153.339 366.62 153.931 366.857 154.537 367.049C160.169 368.902 167.103 367.384 172.438 365.635C185.398 361.401 198.547 356.32 210.362 349.526C220.563 343.678 232.735 334.185 231.422 321.544C231.296 320.151 231.011 318.778 230.575 317.45" stroke="black" stroke-width="5.47" stroke-miterlimit="10"/>
<path d="M236.963 209.244C237.869 213.022 239.938 216.421 242.878 218.961C245.818 221.502 249.482 223.055 253.352 223.402C253.673 221.844 254.37 220.386 255.382 219.158C259.702 214.066 261.544 223.619 275.362 216.761C294.511 207.235 301.779 212.7 301.779 212.7C302.416 213.175 302.319 217.56 302.427 218.359C302.967 222.911 303.453 227.442 303.988 231.988C304.312 234.764 304.63 237.518 304.933 240.272C305.193 239.804 305.482 239.351 305.797 238.917C307.541 232.744 310.657 225.455 317.374 228.592C318.734 229.255 319.919 230.23 320.83 231.438C325.285 237.291 321.91 242.945 317.25 247.13C316.082 248.429 314.776 249.596 313.357 250.613C314.123 252.201 317.255 258.503 317.255 258.524C317.579 259.162 328.525 246.774 329.341 245.424C330.559 242.117 331.212 238.628 331.274 235.105C331.452 220.616 325.555 203.752 313.821 195.441C310.91 193.384 311.839 191.402 311.661 188.605C311.649 188.454 311.591 188.31 311.495 188.192C311.399 188.074 311.27 187.989 311.124 187.946C310.978 187.903 310.823 187.906 310.679 187.953C310.535 188 310.409 188.09 310.316 188.211C306.639 192.445 297.535 192.023 297.535 192.023C265.934 184.107 255.312 198.158 248.935 200.663C246.332 201.649 243.468 201.696 240.835 200.798C240.68 201.67 240.289 202.483 239.706 203.149C239.122 203.815 238.368 204.31 237.524 204.578L237.686 206.041C237.824 207.161 237.568 208.293 236.963 209.244Z" fill="#F34848"/>
<path d="M253.373 223.426C249.503 223.078 245.84 221.525 242.9 218.985C239.959 216.445 237.89 213.046 236.984 209.267C236.63 207.818 236.406 206.339 236.315 204.85L236.563 204.823C236.903 204.798 237.237 204.725 237.557 204.607C238.401 204.338 239.155 203.844 239.738 203.178C240.322 202.512 240.712 201.699 240.867 200.827C240.966 200.344 240.986 199.848 240.926 199.358L240.116 192.209C240.116 192.209 245.83 196.458 252.169 193.974C258.509 191.49 269.152 177.44 300.769 185.334C300.769 185.334 307.908 185.756 311.569 181.522C311.662 181.401 311.788 181.311 311.932 181.264C312.076 181.217 312.231 181.215 312.377 181.257C312.522 181.3 312.652 181.386 312.747 181.503C312.844 181.621 312.901 181.765 312.914 181.916C313.103 184.719 314.14 186.701 317.056 188.753C328.79 197.069 334.687 213.927 334.503 228.416C334.449 234.426 332.451 240.36 329.368 245.453C328.552 246.803 317.606 259.19 317.282 258.553C317.282 258.553 314.15 252.23 313.384 250.642L313.2 250.291L313.551 250.059C314.855 249.174 316.099 248.205 317.277 247.159C321.932 242.974 325.312 237.32 320.857 231.467C319.945 230.259 318.761 229.284 317.401 228.621C310.662 225.483 307.568 232.773 305.824 238.946C305.485 240.125 305.277 241.338 305.203 242.564C305.122 241.808 305.041 241.079 304.96 240.323C304.657 237.569 304.339 234.815 304.015 232.039C303.475 227.492 302.967 222.962 302.454 218.409C302.373 217.632 302.454 213.225 301.806 212.75C301.806 212.75 294.532 207.285 275.389 216.811C261.571 223.669 259.729 214.111 255.409 219.209C254.397 220.437 253.7 221.894 253.379 223.453C253.28 223.954 253.217 224.461 253.19 224.97C253.18 225.036 253.18 225.104 253.19 225.17C253.125 226.288 253.103 227.4 253.076 228.491C252.974 239.016 254.129 250.01 258.26 259.784C263.282 271.632 276.572 283.317 290.39 277.793C294.71 276.06 298.582 273.268 302.125 270.303" stroke="black" stroke-width="5.47" stroke-miterlimit="10"/>
<path d="M262.83 249.094C264.204 248.634 264.867 246.913 264.311 245.251C263.755 243.587 262.189 242.612 260.815 243.072C259.44 243.532 258.777 245.253 259.333 246.916C259.89 248.579 261.456 249.554 262.83 249.094Z" fill="black"/>
<path d="M283.391 248.436C284.765 247.977 285.428 246.256 284.872 244.592C284.315 242.929 282.75 241.954 281.376 242.414C280.001 242.874 279.338 244.595 279.894 246.258C280.451 247.921 282.016 248.896 283.391 248.436Z" fill="black"/>
<path d="M275.53 251.997C275.53 251.997 268.688 255.88 268.272 251.852C268.142 250.61 266.468 238.443 266.468 238.443C266.468 238.443 260.939 232.584 252.466 236.915" stroke="black" stroke-width="5.47" stroke-miterlimit="10"/>
<path d="M273.991 235.034C273.991 235.034 285.039 229.516 292.351 237.47" stroke="black" stroke-width="5.47" stroke-miterlimit="10"/>
<path d="M284.121 279.148L285.39 285.661C281.389 289.349 278.559 294.635 279.385 300.203C280.12 305.138 284.159 309.734 288.301 312.32C295.223 316.64 304.43 316.3 311.882 313.552C319.167 310.852 325.469 305.727 330.037 299.474C332.189 296.451 333.622 292.977 334.228 289.316V289.252" stroke="black" stroke-width="5.47" stroke-miterlimit="10"/>
<path d="M285.39 285.66L287.863 297.421" stroke="black" stroke-width="5.47" stroke-miterlimit="10"/>
<path d="M320.366 255.718L324.103 280.531C324.471 282.959 325.699 285.176 327.563 286.776C329.427 288.376 331.803 289.255 334.26 289.252C345.89 291.136 357.362 293.887 368.582 297.481C412.414 311.618 439.393 351.103 447.012 395.221C450.182 413.695 450.419 433.07 446.44 451.441C444.177 461.782 440.905 473.397 433.307 481.141C423.441 491.239 408.299 487.081 396.641 482.518C360.445 468.44 330.34 443.395 304.344 414.721C290.444 399.385 272.484 387.094 272.484 387.094" stroke="black" stroke-width="5.47" stroke-miterlimit="10"/>
<path d="M131.922 457.127C127.861 457.089 124.324 453.812 123.412 449.249C121.608 440.274 121.133 426.396 134.293 423.367C150.736 419.587 163.382 437.493 169.582 448.811C171.666 452.591 169.306 457.451 165.424 457.451L131.922 457.127Z" fill="white"/>
<path d="M137.351 415.746C140.841 413.423 140.895 407.367 137.47 402.221C134.045 397.073 128.439 394.784 124.948 397.107C121.457 399.43 121.403 405.485 124.828 410.632C128.253 415.78 133.86 418.069 137.351 415.746Z" fill="white"/>
<path d="M407.576 496.324C407.322 496.362 407.036 496.399 406.787 496.459H406.69L368.28 496.259L310.646 495.962C310.424 495.962 310.208 495.962 309.992 495.962C309.564 495.952 309.137 495.919 308.713 495.865C312.617 495.411 316.237 493.595 318.935 490.735C321.632 487.876 323.235 484.156 323.46 480.232C323.471 480.029 323.471 479.825 323.46 479.622V479.308C323.444 475.468 322.106 471.751 319.671 468.782C317.236 465.813 313.852 463.773 310.09 463.006C309.695 462.909 309.263 462.849 308.848 462.79C309.501 462.73 310.149 462.687 310.781 462.687L359.473 462.946L368.437 462.984L380.527 463.044C384.667 463.422 388.517 465.33 391.325 468.396C394.131 471.462 395.694 475.465 395.707 479.622C395.707 480.406 395.648 481.19 395.528 481.965C394.953 485.923 392.976 489.542 389.957 492.165C386.939 494.789 383.079 496.241 379.08 496.259H408.337C406.652 496.259 407.122 496.259 407.576 496.324Z" fill="white"/>
<path d="M329.665 516.408C330.762 517.512 332.067 518.386 333.505 518.982C334.943 519.577 336.484 519.88 338.04 519.875H309.755C304.355 519.875 301.406 518.558 299.257 516.408C297.049 514.19 295.805 511.19 295.796 508.06C295.796 501.58 301.109 496.266 309.755 496.266H338.04C335.705 496.263 333.421 496.952 331.478 498.248C329.536 499.544 328.021 501.387 327.127 503.544C326.233 505.701 325.999 508.076 326.456 510.366C326.912 512.656 328.039 514.759 329.692 516.408H329.665Z" fill="white"/>
<path d="M423.079 479.918C423.072 482.413 422.492 484.872 421.384 487.106C420.592 488.795 419.506 490.329 418.176 491.636C415.983 493.809 413.229 495.33 410.222 496.027C408.982 496.313 407.714 496.458 406.442 496.459C406.701 496.399 406.982 496.361 407.23 496.324C406.777 496.28 406.307 496.264 407.997 496.264H378.734C382.736 496.249 386.599 494.797 389.62 492.172C392.641 489.548 394.619 485.925 395.194 481.965C395.313 481.19 395.372 480.406 395.372 479.621C395.359 475.464 393.796 471.46 390.988 468.394C388.179 465.328 384.328 463.42 380.187 463.043L395.982 463.125L406.534 463.184C410.943 463.221 415.158 465.002 418.259 468.138C421.359 471.274 423.092 475.509 423.079 479.918Z" fill="#F34848"/>
<path d="M423.079 479.914C423.046 484.327 421.266 488.546 418.128 491.648C414.991 494.75 410.752 496.482 406.339 496.465L310.262 495.968C309.62 495.968 308.977 495.92 308.329 495.855C312.379 495.396 316.12 493.468 318.843 490.434C321.566 487.402 323.081 483.475 323.103 479.4C323.124 475.324 321.649 471.382 318.959 468.321C316.267 465.26 312.547 463.292 308.502 462.791C309.144 462.723 309.789 462.691 310.435 462.694L406.512 463.19C410.924 463.221 415.144 464.997 418.249 468.131C421.354 471.266 423.091 475.502 423.079 479.914Z" stroke="black" stroke-width="5.47" stroke-linecap="square" stroke-linejoin="round"/>
<path d="M395.361 479.617C395.352 484.028 393.596 488.256 390.477 491.375C387.358 494.495 383.129 496.251 378.718 496.259H310.36C309.714 496.256 309.068 496.22 308.426 496.151C312.473 495.671 316.203 493.723 318.911 490.676C321.617 487.629 323.112 483.695 323.112 479.619C323.112 475.544 321.617 471.61 318.911 468.563C316.203 465.516 312.473 463.568 308.426 463.087C309.069 463.028 309.717 462.985 310.36 462.985H378.718C383.127 462.994 387.353 464.75 390.472 467.866C393.59 470.983 395.348 475.208 395.361 479.617Z" stroke="black" stroke-width="5.47" stroke-linecap="square" stroke-linejoin="round"/>
<path d="M295.796 508.063C295.795 509.612 296.1 511.146 296.693 512.577C297.287 514.007 298.156 515.307 299.252 516.401C301.412 518.561 304.344 519.873 309.749 519.873H407.992C406.301 519.873 406.76 519.841 407.219 519.797C404.345 519.459 401.695 518.078 399.771 515.914C397.848 513.752 396.786 510.958 396.786 508.063C396.786 505.169 397.848 502.375 399.771 500.212C401.695 498.05 404.345 496.668 407.219 496.329C406.76 496.286 406.301 496.253 407.992 496.253H309.749C301.099 496.259 295.796 501.572 295.796 508.063Z" stroke="black" stroke-width="5.47" stroke-linecap="square" stroke-linejoin="round"/>
<path d="M326.198 508.063C326.205 511.194 327.452 514.193 329.665 516.406C331.878 518.62 334.878 519.866 338.008 519.873H405.848C406.301 519.873 406.76 519.841 407.219 519.797C404.345 519.459 401.695 518.078 399.771 515.914C397.848 513.752 396.786 510.958 396.786 508.063C396.786 505.169 397.848 502.375 399.771 500.212C401.695 498.05 404.345 496.668 407.219 496.329C406.76 496.286 406.301 496.253 405.848 496.253H338.008C334.878 496.262 331.879 497.509 329.666 499.722C327.453 501.935 326.206 504.934 326.198 508.063Z" stroke="black" stroke-width="5.47" stroke-linecap="square" stroke-linejoin="round"/>
<path d="M216.227 417.96H185.922C184.535 417.958 183.179 417.552 182.019 416.793C180.86 416.033 179.945 414.953 179.388 413.683C179.173 413.211 179.081 412.691 179.121 412.173C179.16 411.655 179.33 411.157 179.615 410.722C179.899 410.288 180.289 409.932 180.748 409.689C181.207 409.446 181.72 409.323 182.239 409.331H214.456C212.938 411.885 213.71 415.433 216.227 417.96Z" fill="white"/>
<path d="M235.823 414.838C235.822 415.664 235.493 416.456 234.909 417.039C234.325 417.624 233.534 417.952 232.708 417.954H216.227C213.71 415.432 212.938 411.884 214.456 409.314H229.009C230.394 409.314 231.749 409.716 232.91 410.471C234.07 411.227 234.987 412.303 235.548 413.569C235.722 413.97 235.816 414.401 235.823 414.838Z" fill="#F34848"/>
<path d="M228.242 417.959C228.156 418.124 228.057 418.281 227.945 418.429C225.785 421.383 221.092 421.669 217.447 419.002C217.016 418.684 216.609 418.335 216.227 417.959C213.71 415.438 212.938 411.89 214.456 409.319C214.541 409.155 214.64 408.998 214.753 408.85C216.913 405.874 221.584 405.61 225.229 408.256C225.668 408.584 226.081 408.945 226.465 409.336C228.96 411.847 229.738 415.373 228.242 417.959Z" fill="white"/>
<path d="M243.443 433.863C243.437 434.69 243.105 435.481 242.518 436.064C241.931 436.647 241.138 436.974 240.311 436.974H208.51C210.044 434.393 209.277 430.872 206.755 428.334H236.628C238.015 428.334 239.372 428.738 240.533 429.497C241.694 430.255 242.61 431.335 243.167 432.605C243.346 433.001 243.439 433.429 243.443 433.863Z" fill="#F34848"/>
<path d="M208.51 436.972H193.547C192.162 436.973 190.806 436.572 189.645 435.816C188.484 435.061 187.567 433.984 187.007 432.717C186.831 432.321 186.737 431.893 186.732 431.459C186.731 431.051 186.811 430.646 186.967 430.268C187.123 429.89 187.352 429.547 187.641 429.258C187.93 428.969 188.274 428.74 188.651 428.584C189.029 428.428 189.434 428.348 189.842 428.348H206.755C209.277 430.87 210.06 434.391 208.51 436.972Z" fill="white"/>
<path d="M208.51 436.973C208.44 437.142 208.347 437.302 208.235 437.448C206.075 440.418 201.398 440.688 197.759 438.037C197.318 437.708 196.903 437.347 196.517 436.957C194.017 434.435 193.25 430.914 194.746 428.317C194.832 428.15 194.931 427.992 195.043 427.841C197.203 424.888 201.895 424.601 205.535 427.274C205.968 427.589 206.376 427.938 206.755 428.317C209.277 430.871 210.06 434.392 208.51 436.973Z" fill="white"/>
<path d="M219.105 455.858H200.065C198.68 455.856 197.326 455.453 196.165 454.698C195.004 453.943 194.087 452.868 193.525 451.603C193.311 451.128 193.22 450.608 193.26 450.089C193.3 449.57 193.47 449.07 193.755 448.635C194.04 448.199 194.43 447.842 194.889 447.598C195.348 447.353 195.861 447.228 196.382 447.234H217.334C215.833 449.821 216.605 453.336 219.105 455.858Z" fill="#F34848"/>
<path d="M249.961 452.768C249.956 453.59 249.626 454.376 249.044 454.955C248.46 455.534 247.672 455.858 246.85 455.857H219.105C216.605 453.335 215.833 449.815 217.334 447.217H243.146C244.533 447.217 245.89 447.622 247.051 448.38C248.212 449.138 249.127 450.219 249.685 451.489C249.863 451.892 249.957 452.327 249.961 452.768Z" fill="white"/>
<path d="M231.12 455.858C231.034 456.024 230.934 456.182 230.823 456.333C228.663 459.303 223.992 459.573 220.347 456.922C219.909 456.592 219.496 456.231 219.11 455.842C216.61 453.32 215.838 449.799 217.339 447.202C217.422 447.035 217.519 446.875 217.631 446.726C219.791 443.773 224.483 443.519 228.128 446.159C228.561 446.474 228.97 446.822 229.349 447.202C231.865 449.756 232.632 453.298 231.12 455.858Z" fill="white"/>
<path d="M87.2694 283.7L87.7446 283.835L87.5664 284.527C87.4535 284.257 87.3542 283.981 87.2694 283.7Z" fill="#353642"/>
<path d="M171.777 326.903C178.886 324.816 182.62 316.218 180.12 307.699C177.619 299.181 169.829 293.966 162.721 296.052C155.613 298.139 151.878 306.737 154.379 315.256C156.88 323.775 164.669 328.989 171.777 326.903Z" fill="white"/>
</svg>
